# xmcd
#
# Track frame offsets: 
#        150
#        11510
#        23823
#        36840
#        47577
#        60050
#        72075
#        83350
#        96040
#        109904
#        121459
#        136145
#        148341
#        161498
#        173801
#        185308
#        198430
#        212171
#        224720
#        234716
#        246002
#        256795
#        266912
#        276988
#
# Disc length: 3856 seconds
#
# Revision: 0
# Processed by: cddbd v1.5.2PL0 Copyright (c) Steve Scherf et al.
# Submitted via: ExactAudioCopy v0.99pb5
#
DISCID=570f0e18
DTITLE=Hidehiko Matsumoto and Yoshio Kimura - Festival of Enka
DYEAR=1969
DGENRE=Easy Listening
TTITLE0=Inochi Azukemasu
TTITLE1=Keiko no Yume wa Yoru Hiraku
TTITLE2=Onna no Blues
TTITLE3=Shinjuku no Onna
TTITLE4=Neongai no Onna
TTITLE5=Inochi Girigiri
TTITLE6=Uwasa no Onna
TTITLE7=Awazuni Aishite
TTITLE8=Ai no Tabiji o
TTITLE9=Nagasaki wa Kyo mo Ame Datta
TTITLE10=Wakareame
TTITLE11=Nagasaki Shijo
TTITLE12=Hatoba Onna no Blues
TTITLE13=Koi Hitosuji
TTITLE14=Onna
TTITLE15=Hana to Cho
TTITLE16=Inochi Karetemo
TTITLE17=Minatomachi Blues
TTITLE18=Yoru no Setouchi
TTITLE19=Kokusaisen Machiaishitsu
TTITLE20=Ikebukuro no Yoru
TTITLE21=Nagasaki Blues
TTITLE22=Isezakicho Blues
TTITLE23=Kokotsu no Blues
EXTD=
EXTT0=
EXTT1=
EXTT2=
EXTT3=
EXTT4=
EXTT5=
EXTT6=
EXTT7=
EXTT8=
EXTT9=
EXTT10=
EXTT11=
EXTT12=
EXTT13=
EXTT14=
EXTT15=
EXTT16=
EXTT17=
EXTT18=
EXTT19=
EXTT20=
EXTT21=
EXTT22=
EXTT23=
PLAYORDER=
